<svg version="1.1" id="Layer_1" xmlns="http://www.w3.org/2000/svg" xmlns:xlink="http://www.w3.org/1999/xlink" x="0px" y="0px"
	 width="100%" viewBox="0 0 576 400" enable-background="new 0 0 576 400" xml:space="preserve">
<path fill="#000000" opacity="1.000000" stroke="none" 
	d="
M264.349243,178.653137 
	C244.949509,178.946335 225.958466,179.050125 206.967331,179.121658 
	C197.173767,179.158539 189.567215,183.049728 184.695023,191.717789 
	C179.628738,200.731110 180.077789,209.675949 185.829224,218.118042 
	C190.866928,225.512497 198.100342,228.993408 207.150970,228.926941 
	C224.482452,228.799667 241.815338,228.848541 259.147644,228.852829 
	C265.887085,228.854492 266.136841,229.103851 266.146423,235.942810 
	C266.169983,252.775192 266.601593,269.622894 266.027374,286.435669 
	C265.475067,302.607086 276.042328,310.791199 288.318451,313.340363 
	C295.882507,314.911041 303.570923,314.433136 310.671173,310.482910 
	C319.815735,305.395325 325.387482,294.199219 324.040100,283.888550 
	C323.694366,281.243225 321.769379,280.437317 320.189026,279.057251 
	C316.238312,275.607117 315.211731,271.166016 317.187531,266.397064 
	C318.919098,262.217590 322.877869,260.186768 328.299103,260.674194 
	C333.456055,261.137878 335.817749,264.559204 336.911896,269.078217 
	C337.820862,272.832458 336.605164,276.624725 333.576324,278.413635 
	C329.256409,280.965088 329.196320,284.408600 329.185974,288.535431 
	C329.142761,305.745758 317.872040,320.552216 301.409454,325.326172 
	C277.252197,332.331451 253.219452,314.287720 252.796860,288.647552 
	C252.571686,274.985291 252.628342,261.314789 252.815247,247.651489 
	C252.871201,243.561249 251.576950,242.103638 247.397293,242.165253 
	C233.734421,242.366592 220.063583,242.415146 206.401352,242.188812 
	C180.862686,241.765732 163.411301,218.833908 169.605515,194.087799 
	C173.646240,177.944992 188.897232,165.970016 205.966751,165.783600 
	C219.297775,165.638016 232.631683,165.764908 245.964279,165.746597 
	C252.706543,165.737350 252.730301,165.713257 252.744110,159.170959 
	C252.772247,145.838409 252.588318,132.502472 252.829346,119.174034 
	C253.140976,101.939407 263.841583,87.860413 279.959381,82.929626 
	C295.323120,78.229523 312.356812,83.828598 321.770172,96.777130 
	C326.609955,103.434509 329.121124,110.959396 329.184845,119.184868 
	C329.290741,132.850021 329.383392,146.519089 329.151947,160.180908 
	C329.076935,164.608780 330.534851,165.934540 334.902374,165.854950 
	C348.230530,165.612106 361.567017,165.663559 374.898285,165.797134 
	C391.624176,165.964722 405.517212,175.406052 411.135345,190.175110 
	C420.632599,215.141815 403.087067,241.566360 376.212799,242.134201 
	C355.890137,242.563629 335.550720,242.213242 315.218781,242.188354 
	C302.617920,242.172943 292.598907,237.526413 286.171295,226.186493 
	C283.709686,221.843567 280.901428,217.694107 278.185547,213.498917 
	C270.285004,201.294815 262.071838,189.460587 245.551132,187.534546 
	C250.669189,183.691284 256.092499,182.835083 261.911255,184.448196 
	C266.850983,185.817612 270.792267,188.866379 274.516632,192.288467 
	C277.945160,195.438721 281.314484,198.739960 285.560425,200.799011 
	C288.216705,202.087097 291.059387,202.919327 294.143097,201.548264 
	C289.852234,200.922028 285.672455,200.200333 282.724762,196.648682 
	C279.817444,193.145721 278.180176,189.356323 279.458679,184.674500 
	C281.310822,177.892044 287.768097,173.632919 294.230499,175.058609 
	C303.189636,177.035141 306.002411,183.580475 302.975250,197.158859 
	C306.967743,193.630966 310.273743,190.738205 313.547028,187.808884 
	C316.546234,185.124786 319.677795,182.582855 323.552948,181.347778 
	C328.155884,179.880783 332.389130,180.354874 335.589142,184.503632 
	C334.903412,186.812073 332.738770,186.793121 331.245209,187.654633 
	C320.752319,193.707199 314.194672,202.530975 313.093628,214.703629 
	C312.366425,222.743210 317.312653,228.437912 325.397339,228.591568 
	C343.221313,228.930328 361.067566,229.118530 378.881897,228.593658 
	C391.097870,228.233719 400.936279,216.043121 400.685822,203.056442 
	C400.447510,190.702621 389.792755,179.478851 377.482178,179.285843 
	C359.487610,179.003723 341.486115,179.184326 323.487732,179.120667 
	C315.881744,179.093765 315.882080,179.039383 315.876801,171.167770 
	C315.865173,153.835388 315.939270,136.502380 315.812775,119.170837 
	C315.721954,106.728119 307.452118,97.290886 294.852661,94.864937 
	C283.941833,92.764122 272.406189,99.309898 267.814240,110.052307 
	C266.321350,113.544769 266.150116,117.147896 266.149750,120.822708 
	C266.148041,137.821732 266.169708,154.820847 266.115906,171.819702 
	C266.108765,174.082611 266.669464,176.543198 264.349243,178.653137 
z"/>
</svg>